# xmcd
#
# Track frame offsets: 
#        150
#        13260
#        28782
#        46045
#        60415
#        77957
#        93015
#        109655
#        120852
#        135622
#
# Disc length: 2061 seconds
#
# Revision: 3
# Processed by: cddbd v1.5.1PL0 Copyright (c) Steve Scherf et al.
# Submitted via: ExactAudioCopy v0.95a5
#
DISCID=70080b0a
DTITLE=Jann Browne - Tell Me Why
DYEAR=1990
DGENRE=Country
TTITLE0=Tell Me Why
TTITLE1=Ain't No Train
TTITLE2='Til A Tear Becomes A Rose
TTITLE3=Louisville
TTITLE4=Mexican Wind
TTITLE5=Losing You
TTITLE6=You Ain't Down Home
TTITLE7=The One You Slip Around With
TTITLE8=I Forgot More Than You'll Ever Know
TTITLE9=Lovebird
EXTD=
EXTT0=
EXTT1=
EXTT2=
EXTT3=
EXTT4=
EXTT5=
EXTT6=
EXTT7=
EXTT8=
EXTT9=
PLAYORDER=
